<svg xmlns="http://www.w3.org/2000/svg" viewBox="0 0 180 180" width="180" height="180">
  <defs>
    <linearGradient id="bg" x1="0%" y1="0%" x2="100%" y2="100%">
      <stop offset="0%" stop-color="#4f46e5"/>
      <stop offset="50%" stop-color="#7c3aed"/>
      <stop offset="100%" stop-color="#ec4899"/>
    </linearGradient>
    <linearGradient id="brain" x1="0%" y1="0%" x2="100%" y2="100%">
      <stop offset="0%" stop-color="#ffffff"/>
      <stop offset="100%" stop-color="#f8fafc"/>
    </linearGradient>
    <linearGradient id="circuit" x1="0%" y1="0%" x2="100%" y2="100%">
      <stop offset="0%" stop-color="#06b6d4"/>
      <stop offset="100%" stop-color="#10b981"/>
    </linearGradient>
  </defs>
  
  <!-- Background -->
  <rect width="180" height="180" rx="32" fill="url(#bg)"/>
  
  <!-- Brain Shape -->
  <g transform="translate(25, 35)">
    <path d="M65 10c20 0 35 12 40 25 5 15 3 28-5 40-8 12-22 18-37 18-8 0-17-3-25-8-8-5-14-14-17-25-3-11 0-23 8-31C37 20 51 10 65 10z" fill="url(#brain)" opacity="0.95"/>
    
    <!-- Quiz/Question Mark -->
    <g fill="url(#circuit)" stroke="none">
      <path d="M55 45c0-6 3-9 8-9s8 3 8 9-3 6-6 7v5h-6v-6c0-3 3-5 6-6 2-1 3-2 3-4 0-2-1-3-3-3s-3 1-3 3h-7z"/>
      <circle cx="63" cy="70" r="3"/>
    </g>
    
    <!-- AI Circuit Nodes -->
    <g fill="#fbbf24" opacity="0.8">
      <circle cx="35" cy="35" r="4"/>
      <circle cx="95" cy="45" r="4"/>
      <circle cx="30" cy="70" r="4"/>
      <circle cx="100" cy="80" r="4"/>
    </g>
    
    <!-- Circuit Lines -->
    <g stroke="url(#circuit)" stroke-width="6" fill="none" opacity="0.7">
      <path d="M35 35L55 45"/>
      <path d="M75 45L95 45"/>
      <path d="M30 70L50 55"/>
      <path d="M80 65L100 80"/>
    </g>
  </g>
  
  <!-- AI Sparkle -->
  <g transform="translate(125, 25)" fill="#ffd700" opacity="0.9">
    <path d="M15 0L20 10L30 5L25 15L35 20L25 25L30 35L20 30L15 40L10 30L0 35L5 25L-5 20L5 15L0 5L10 10L15 0Z" transform="scale(0.8)"/>
  </g>
</svg>