<svg xmlns="http://www.w3.org/2000/svg" viewBox="0 0 64 64" width="64" height="64" role="img" aria-label="Quizzicallabs favicon - brain circuit">
  <defs>
    <linearGradient id="bg" x1="0" x2="1">
      <stop offset="0" stop-color="#0f172a" />
      <stop offset="1" stop-color="#071029" />
    </linearGradient>
    <linearGradient id="acc" x1="0" x2="1">
      <stop offset="0" stop-color="#06b6d4" />
      <stop offset="1" stop-color="#60a5fa" />
    </linearGradient>
  </defs>

  <!-- background -->
  <rect width="64" height="64" rx="12" fill="url(#bg)" />

  <!-- brain silhouette -->
  <g transform="translate(8,8)">
    <path d="M24 2c6 0 10 3 12 6 2 3 2 6 2 9s-1 5-3 7c-2 2-4 3-6 3s-3 0-5 1-4 2-7 2-5-1-7-2-3-2-4-3c-1-1-2-3-2-5s0-4 2-7 6-6 12-6c2 0 4 0 6-1z" fill="#071028" opacity="0.12" />
    <path d="M24 4c5 0 9 3 11 6 1.7 2.8 1.8 5.6 1.8 8 0 2.7-.9 4.6-2.6 6.3-2 1.9-4.4 2.6-7 2.6-1.6 0-3.1-.2-4.6-.7-1.3-.4-2.6-.7-4.1-.7-1.5 0-2.8.3-4.1.7-1.5.5-3 .7-4.6.7-2.6 0-5-0.7-7-2.6C2.1 28.6 1 26.7 1 24c0-2.4.1-5.2 1.8-8C4 13 8 10 13 10c2 0 3.8.3 5.6 1 1.5.6 2.9 1 4.4 1 1.4 0 2.8-.4 4-1 1.8-.8 3.7-1 5-1z" fill="url(#acc)" />

    <!-- circuit lines & nodes -->
    <g stroke="#a7f3d0" stroke-width="1.6" stroke-linecap="round" stroke-linejoin="round" fill="none">
      <path d="M8 12h6" />
      <path d="M28 10h6" />
      <path d="M14 18h8" />
      <path d="M22 6v6" />
      <path d="M36 14v6" />
      <path d="M18 22v6" />
    </g>

    <g fill="#7dd3fc">
      <circle cx="8" cy="12" r="1.8" />
      <circle cx="14" cy="18" r="1.8" />
      <circle cx="22" cy="6" r="1.8" />
      <circle cx="28" cy="10" r="1.8" />
      <circle cx="36" cy="14" r="1.8" />
      <circle cx="18" cy="28" r="1.8" />
    </g>

    <!-- subtle white stroke to keep silhouette crisp at small sizes -->
    <path d="M24 4c5 0 9 3 11 6 1.7 2.8 1.8 5.6 1.8 8 0 2.7-.9 4.6-2.6 6.3-2 1.9-4.4 2.6-7 2.6-1.6 0-3.1-.2-4.6-.7-1.3-.4-2.6-.7-4.1-.7-1.5 0-2.8.3-4.1.7-1.5.5-3 .7-4.6.7-2.6 0-5-0.7-7-2.6C2.1 28.6 1 26.7 1 24c0-2.4.1-5.2 1.8-8C4 13 8 10 13 10c2 0 3.8.3 5.6 1 1.5.6 2.9 1 4.4 1 1.4 0 2.8-.4 4-1 1.8-.8 3.7-1 5-1z" fill="none" stroke="#ffffff" stroke-opacity="0.06" stroke-width="0.8" />
  </g>

</svg>
