<svg width="32" height="32" viewBox="0 0 32 32" fill="none" xmlns="http://www.w3.org/2000/svg">
  <defs>
    <linearGradient id="faviconGradient" x1="0%" y1="0%" x2="100%" y2="100%">
      <stop offset="0%" style="stop-color:#667eea;stop-opacity:1" />
      <stop offset="100%" style="stop-color:#764ba2;stop-opacity:1" />
    </linearGradient>
  </defs>
  
  <!-- Background -->
  <rect width="32" height="32" rx="8" fill="url(#faviconGradient)"/>
  
  <!-- Simplified brain -->
  <path d="M8 12 C6 10, 6 8, 8 6 C10 4, 14 4, 16 6 C18 4, 22 4, 24 6 C26 8, 26 10, 24 12 C26 14, 26 16, 24 18 C26 20, 26 22, 24 24 C22 26, 18 26, 16 24 C14 26, 10 26, 8 24 C6 22, 6 20, 8 18 C6 16, 6 14, 8 12 Z" 
        fill="rgba(255,255,255,0.9)" 
        stroke="rgba(255,255,255,0.5)" 
        stroke-width="0.5"/>
  
  <!-- Question mark -->
  <path d="M22 8 C22 6, 23 5, 25 5 C27 5, 28 6, 28 8 C28 10, 27 11, 26 12 L26 14 M26 16 L26 17" 
        stroke="#fee140" 
        stroke-width="1.5" 
        stroke-linecap="round" 
        fill="none"/>
  
  <!-- AI text -->
  <text x="16" y="28" text-anchor="middle" fill="rgba(255,255,255,0.8)" font-family="Arial, sans-serif" font-size="6" font-weight="bold">AI</text>
</svg>