<svg width="512" height="512" viewBox="0 0 512 512" fill="none" xmlns="http://www.w3.org/2000/svg">
<rect width="512" height="512" rx="128" fill="#003322"/>
<path d="M256 106C186.23 106 130 162.23 130 232C130 269.45 145.92 302.58 171.16 327.84C184.22 340.91 200.28 350.56 218 356.13V356.14C221.89 357.38 225.88 358.33 230 359.01V406H282V359.01C286.12 358.33 290.11 357.38 294 356.14V356.13C311.72 350.56 327.78 340.91 340.84 327.84C366.08 302.58 382 269.45 382 232C382 162.23 325.77 106 256 106ZM256 341C200.75 341 156 296.25 156 241C156 185.75 200.75 141 256 141C311.25 141 356 185.75 356 241C356 296.25 311.25 341 256 341Z" fill="white"/>
<path d="M269 241H243V215H269V241Z" fill="white"/>
<path d="M269 267V293H243V267H269Z" fill="white"/>
</svg>
