<svg width="512" height="512" viewBox="0 0 512 512" fill="none" xmlns="http://www.w3.org/2000/svg">
  <defs>
    <!-- High-res gradient -->
    <linearGradient id="pwa512Gradient" x1="0%" y1="0%" x2="100%" y2="100%">
      <stop offset="0%" style="stop-color:#667eea;stop-opacity:1" />
      <stop offset="30%" style="stop-color:#764ba2;stop-opacity:1" />
      <stop offset="70%" style="stop-color:#f093fb;stop-opacity:1" />
      <stop offset="100%" style="stop-color:#ffecd2;stop-opacity:1" />
    </linearGradient>
    
    <!-- Brain gradient -->
    <linearGradient id="pwa512BrainGradient" x1="0%" y1="0%" x2="100%" y2="100%">
      <stop offset="0%" style="stop-color:#4facfe;stop-opacity:1" />
      <stop offset="50%" style="stop-color:#00f2fe;stop-opacity:1" />
      <stop offset="100%" style="stop-color:#43e97b;stop-opacity:1" />
    </linearGradient>
    
    <!-- Question gradient -->
    <linearGradient id="pwa512QuestionGradient" x1="0%" y1="0%" x2="100%" y2="100%">
      <stop offset="0%" style="stop-color:#fa709a;stop-opacity:1" />
      <stop offset="100%" style="stop-color:#fee140;stop-opacity:1" />
    </linearGradient>
    
    <!-- High-quality glow -->
    <filter id="pwa512Glow">
      <feGaussianBlur stdDeviation="6" result="coloredBlur"/>
      <feMerge> 
        <feMergeNode in="coloredBlur"/>
        <feMergeNode in="SourceGraphic"/>
      </feMerge>
    </filter>
    
    <!-- Shadow -->
    <filter id="shadow">
      <feDropShadow dx="0" dy="4" stdDeviation="8" flood-color="rgba(0,0,0,0.3)"/>
    </filter>
  </defs>
  
  <!-- Background with rounded corners -->
  <rect width="512" height="512" rx="128" fill="url(#pwa512Gradient)" filter="url(#shadow)"/>
  
  <!-- Inner highlight ring -->
  <rect x="20" y="20" width="472" height="472" rx="108" fill="rgba(255,255,255,0.1)" stroke="rgba(255,255,255,0.2)" stroke-width="2"/>
  
  <!-- Detailed brain -->
  <path d="M160 180 C140 160, 140 140, 160 120 C180 100, 220 100, 240 120 C260 100, 300 100, 320 120 C340 140, 340 160, 320 180 C340 200, 340 220, 320 240 C340 260, 340 280, 320 300 C300 320, 260 320, 240 300 C220 320, 180 320, 160 300 C140 280, 140 260, 160 240 C140 220, 140 200, 160 180 Z" 
        fill="url(#pwa512BrainGradient)" 
        opacity="0.9" 
        stroke="rgba(255,255,255,0.4)" 
        stroke-width="3"
        filter="url(#pwa512Glow)"/>
  
  <!-- Brain details and neural network -->
  <g opacity="0.7">
    <!-- Brain folds -->
    <path d="M180 160 C200 150, 220 150, 240 160" stroke="rgba(255,255,255,0.6)" stroke-width="3" fill="none"/>
    <path d="M180 200 C210 190, 230 190, 260 200" stroke="rgba(255,255,255,0.6)" stroke-width="3" fill="none"/>
    <path d="M170 240 C200 230, 240 230, 270 240" stroke="rgba(255,255,255,0.6)" stroke-width="3" fill="none"/>
    
    <!-- Neural nodes -->
    <circle cx="190" cy="170" r="4" fill="#4facfe"/>
    <circle cx="220" cy="185" r="4" fill="#4facfe"/>
    <circle cx="250" cy="170" r="4" fill="#4facfe"/>
    <circle cx="205" cy="215" r="4" fill="#4facfe"/>
    <circle cx="235" cy="230" r="4" fill="#4facfe"/>
    <circle cx="265" cy="215" r="4" fill="#4facfe"/>
    
    <!-- Neural connections -->
    <line x1="190" y1="170" x2="220" y2="185" stroke="#4facfe" stroke-width="2" opacity="0.8"/>
    <line x1="220" y1="185" x2="250" y2="170" stroke="#4facfe" stroke-width="2" opacity="0.8"/>
    <line x1="220" y1="185" x2="205" y2="215" stroke="#4facfe" stroke-width="2" opacity="0.8"/>
    <line x1="205" y1="215" x2="235" y2="230" stroke="#4facfe" stroke-width="2" opacity="0.8"/>
    <line x1="235" y1="230" x2="265" y2="215" stroke="#4facfe" stroke-width="2" opacity="0.8"/>
  </g>
  
  <!-- Large question mark -->
  <path d="M340 140 C340 120, 350 110, 370 110 C390 110, 400 120, 400 140 C400 160, 390 170, 380 180 L380 200 M380 220 L380 230" 
        stroke="url(#pwa512QuestionGradient)" 
        stroke-width="12" 
        stroke-linecap="round" 
        fill="none" 
        filter="url(#pwa512Glow)"/>
  
  <!-- AI text -->
  <text x="256" y="380" text-anchor="middle" fill="rgba(255,255,255,0.95)" font-family="Arial, sans-serif" font-size="32" font-weight="bold" filter="url(#pwa512Glow)">AI</text>
  
  <!-- Decorative sparkles -->
  <g opacity="0.8">
    <path d="M100 80 L105 90 L115 85 L105 95 L100 105 L95 95 L85 85 L95 90 Z" fill="#fee140"/>
    <path d="M380 320 L383 326 L389 323 L383 329 L380 335 L377 329 L371 323 L377 326 Z" fill="#fa709a"/>
    <path d="M80 300 L82 304 L86 302 L82 306 L80 310 L78 306 L74 302 L78 304 Z" fill="#4facfe"/>
    <path d="M420 100 L422 104 L426 102 L422 106 L420 110 L418 106 L414 102 L418 104 Z" fill="#43e97b"/>
  </g>
  
  <!-- Subtle circuit pattern -->
  <g opacity="0.3" stroke="rgba(255,255,255,0.4)" stroke-width="1" fill="none">
    <path d="M50 50 L70 50 L70 70 L90 70"/>
    <path d="M450 450 L430 450 L430 430 L410 430"/>
    <circle cx="70" cy="50" r="2" fill="rgba(255,255,255,0.4)"/>
    <circle cx="70" cy="70" r="2" fill="rgba(255,255,255,0.4)"/>
    <circle cx="430" cy="450" r="2" fill="rgba(255,255,255,0.4)"/>
    <circle cx="430" cy="430" r="2" fill="rgba(255,255,255,0.4)"/>
  </g>
</svg>