<svg width="512" height="512" viewBox="0 0 512 512" fill="none" xmlns="http://www.w3.org/2000/svg">
<rect width="512" height="512" rx="100" fill="#14532d"/>
<g clip-path="url(#clip0_2_2)">
<path d="M343.575 328.235C379.387 293.153 387.92 240.121 370.315 195.182C352.71 150.243 311.712 120.134 263.094 117.749C214.475 115.365 166.982 141.13 139.826 183.005C112.669 224.88 110.74 278.238 134.179 321.008C157.618 363.778 202.387 389.664 251.021 390.776C285.419 391.579 317.385 377.441 341.401 353.425L367.051 379.075L379.075 367.051L343.575 328.235Z" fill="white"/>
<path d="M286.091 204.111C286.091 182.706 268.829 165.444 247.424 165.444C226.019 165.444 208.757 182.706 208.757 204.111C208.757 219.384 219.105 232.337 232.757 237.195V257.444C232.757 265.471 239.23 271.944 247.257 271.944C255.284 271.944 261.757 265.471 261.757 257.444V237.195C275.409 232.337 286.091 219.384 286.091 204.111Z" fill="#14532d"/>
</g>
<defs>
<clipPath id="clip0_2_2">
<rect width="341" height="341" fill="white" transform="translate(85.5 85.5)"/>
</clipPath>
</defs>
</svg>
