<svg width="512" height="512" viewBox="0 0 24 24" fill="none" xmlns="http://www.w3.org/2000/svg">
<rect width="24" height="24" rx="4" fill="#0d9488"/>
<path d="M12 2C9.25 2 7 4.25 7 7V9H9V7C9 5.35 10.35 4 12 4C13.65 4 15 5.35 15 7V9H17V7C17 4.25 14.75 2 12 2Z" fill="white"/>
<path d="M5 10C5 9.45 5.45 9 6 9H18C18.55 9 19 9.45 19 10V14H17V11H7V14H5V10Z" fill="white"/>
<path d="M18 14H19V17C19 18.1 18.1 19 17 19H16V21H14V19H10V21H8V19H7C5.9 19 5 18.1 5 17V14H6V17H8V15H10V17H14V15H16V17H17V14H18Z" fill="white"/>
<path d="M7 15V17H5V14H7V15ZM17 15V17H19V14H17V15Z" fill="white" fill-opacity="0.3"/>
<path d="M12 22C12.5523 22 13 21.5523 13 21V19H11V21C11 21.5523 11.4477 22 12 22Z" fill="white"/>
</svg>
