<svg xmlns="http://www.w3.org/2000/svg" viewBox="0 0 192 192" width="192" height="192">
  <defs>
    <linearGradient id="bg192" x1="0%" y1="0%" x2="100%" y2="100%">
      <stop offset="0%" stop-color="#4f46e5"/>
      <stop offset="50%" stop-color="#7c3aed"/>
      <stop offset="100%" stop-color="#ec4899"/>
    </linearGradient>
    <linearGradient id="brain192" x1="0%" y1="0%" x2="100%" y2="100%">
      <stop offset="0%" stop-color="#ffffff"/>
      <stop offset="100%" stop-color="#f8fafc"/>
    </linearGradient>
    <linearGradient id="circuit192" x1="0%" y1="0%" x2="100%" y2="100%">
      <stop offset="0%" stop-color="#06b6d4"/>
      <stop offset="100%" stop-color="#10b981"/>
    </linearGradient>
  </defs>
  
  <!-- Background -->
  <rect width="192" height="192" rx="36" fill="url(#bg192)"/>
  
  <!-- Brain Shape -->
  <g transform="translate(24, 36)">
    <path d="M72 12c21 0 36 12 42 27 6 15 3 30-6 42-9 12-24 18-39 18-9 0-18-3-27-9-9-6-15-15-18-27-3-12 0-24 9-33C42 21 57 12 72 12z" fill="url(#brain192)" opacity="0.95"/>
    
    <!-- Quiz/Question Mark -->
    <g fill="url(#circuit192)" stroke="none">
      <path d="M60 54c0-6 3-9 9-9s9 3 9 9-3 6-6 7.2v4.8h-6v-6c0-3 3-4.8 6-6 1.8-1.2 3-2.4 3-4.8 0-1.8-1.2-3-3-3s-3 1.2-3 3h-9z"/>
      <circle cx="69" cy="84" r="3"/>
    </g>
    
    <!-- AI Circuit Nodes -->
    <g fill="#fbbf24" opacity="0.8">
      <circle cx="42" cy="36" r="4.8"/>
      <circle cx="96" cy="48" r="4.8"/>
      <circle cx="36" cy="72" r="4.8"/>
      <circle cx="102" cy="84" r="4.8"/>
    </g>
    
    <!-- Circuit Lines -->
    <g stroke="url(#circuit192)" stroke-width="7.2" fill="none" opacity="0.7">
      <path d="M42 36L60 48"/>
      <path d="M78 48L96 48"/>
      <path d="M36 72L54 60"/>
      <path d="M84 72L102 84"/>
    </g>
  </g>
  
  <!-- AI Sparkle -->
  <g transform="translate(132, 24)" fill="#ffd700" opacity="0.9">
    <path d="M18 0L24 12L36 6L30 18L42 24L30 30L36 42L24 36L18 48L12 36L0 42L6 30L-6 24L6 18L0 6L12 12L18 0Z"/>
  </g>
</svg>