<svg width="192" height="192" viewBox="0 0 192 192" fill="none" xmlns="http://www.w3.org/2000/svg">
<rect width="192" height="192" rx="40" fill="#14532d"/>
<g clip-path="url(#clip0_1_2)">
<path d="M128.841 123.088C142.27 109.932 145.47 90.0453 138.868 73.1933C132.265 56.3414 116.892 45.0504 98.6601 44.156C80.4281 43.2616 62.6184 52.9238 52.4346 68.6148C42.2508 84.3058 41.5273 104.339 50.317 120.378C59.1068 136.417 75.8951 146.124 94.1378 146.541C107.032 146.842 119.019 141.54 128.025 132.534L137.644 142.153L142.153 137.644L128.841 123.088Z" fill="white"/>
<path d="M107.284 76.5416C107.284 68.5147 100.811 62.0416 92.7841 62.0416C84.7572 62.0416 78.2841 68.5147 78.2841 76.5416C78.2841 82.269 82.1643 87.1265 87.2841 88.9482V96.5416C87.2841 99.5559 89.77 102.042 92.7841 102.042C95.7982 102.042 98.2841 99.5559 98.2841 96.5416V88.9482C103.404 87.1265 107.284 82.269 107.284 76.5416Z" fill="#14532d"/>
</g>
<defs>
<clipPath id="clip0_1_2">
<rect width="128" height="128" fill="white" transform="translate(32 32)"/>
</clipPath>
</defs>
</svg>
