<svg width="192" height="192" viewBox="0 0 192 192" xmlns="http://www.w3.org/2000/svg">
  <path d="M0 0 C2.0 -0.004 4.0 -0.009 6.0 -0.014 C10.0 -0.023 14.0 -0.019 18.0 -0.008 C22.9 0.005 27.8 -0.007 32.7 -0.031 C37.4 -0.054 42.1 -0.055 46.8 -0.048 C48.0 -0.047 49.2 -0.052 50.4 -0.063 C71.6 -0.16 86.8 2.67 102.7 16.17 C103.7 16.8 104.8 17.4 105.8 19.0 C114.0 27.2 118.8 41.6 119.4 55.9 C119.6 61.2 119.6 66.6 119.6 72.0 C119.6 73.7 119.6 75.5 119.6 77.2 C119.6 81.8 119.6 86.3 119.6 90.0 C119.5 94.7 119.6 99.4 119.6 104.0 C119.6 108.7 119.6 113.3 119.6 117.8 C119.6 119.5 119.6 121.3 119.6 123.6 C119.8 143.3 118.8 158.6 104.9 174.4 C103.9 175.5 102.9 176.5 101.0 177.6 C93.8 185.8 79.5 190.5 65.2 191.2 C59.9 191.4 54.5 191.4 49.3 191.3 C47.5 191.3 45.8 191.3 44.0 191.3 C39.3 191.4 34.6 191.4 31.1 191.3 C26.4 191.3 21.7 191.3 17.0 191.4 C12.4 191.4 7.8 191.4 3.2 191.4 C1.3 191.4 -0.6 191.4 -2.6 191.4 C-22.3 191.5 -37.6 190.5 -53.3 176.6 C-54.4 175.6 -55.5 174.6 -56.5 173.5 C-64.8 166.4 -69.5 152.1 -70.1 137.8 C-70.3 132.5 -70.3 127.1 -70.2 121.9 C-70.3 120.2 -70.3 118.4 -70.3 116.7 C-70.3 112.0 -70.3 107.4 -70.3 102.8 C-70.3 98.2 -70.3 93.5 -70.3 88.8 C-70.3 84.2 -70.3 79.6 -70.3 75.0 C-70.3 73.1 -70.3 71.2 -70.3 69.2 C-70.4 49.5 -69.1 34.2 -55.6 18.4 C-54.7 17.3 -53.7 16.2 -52.7 15.2 C-39.6 1.8 -20.3 -0.05 0 0 Z" fill="#F05F41" transform="translate(71.3,-0.4)"/>
  <path d="M0 0 C3.7 3.7 6.5 8.3 6.7 13.7 C6.6 14.7 6.6 14.7 6.6 15.8 C6.6 16.8 6.6 16.8 6.6 18.0 C6.6 19.1 6.6 19.1 6.6 20.3 C6.6 21.1 6.6 21.8 6.6 22.7 C6.5 24.5 6.5 26.4 6.6 28.4 C11.0 28.4 15.5 28.4 20.0 28.4 C20.0 27.1 20.0 25.9 19.9 25.0 C19.9 23.5 19.9 22.0 19.9 20.5 C19.9 19.7 19.8 18.9 19.8 18.2 C19.8 13.4 20.1 9.8 23.1 6.0 C24.6 4.4 24.6 4.4 26.1 3.4 C28.4 1.9 30.2 0.3 32.1 -1.6 C34.3 -2.7 35.6 -2.6 38.1 -2.4 C40.8 -0.7 42.0 0.5 43.3 3.5 C43.2 6.5 41.3 8.0 41.1 10.4 C38.3 12.2 36.6 12.6 33.7 12.4 C32.9 12.2 32.2 12.1 31.4 11.9 C30.1 14.0 29.6 15.6 29.5 18.1 C29.5 18.7 29.4 19.3 29.4 19.9 C29.4 20.5 29.4 21.1 29.4 21.8 C29.4 22.4 29.3 23.0 29.3 23.7 C29.2 25.3 29.1 26.8 29.1 28.4 C31.0 28.2 32.9 28.1 34.8 28.1 C35.3 28.1 35.9 28.1 36.4 28.1 C40.0 27.8 42.5 27.1 45.6 25.3 C48.6 25.3 49.8 26.3 52.2 27.7 C53.9 29.9 54.5 30.9 54.6 33.6 C53.8 37.0 52.2 38.6 49.4 40.3 C46.8 40.8 45.5 40.9 43.3 39.2 C40.0 37.6 36.8 37.7 33.2 37.7 C32.0 37.7 32.0 37.7 30.9 37.7 C28.5 37.6 26.0 37.6 23.6 37.6 C22.0 37.6 20.3 37.6 18.6 37.6 C14.6 37.4 10.6 37.4 6.6 37.4 C6.6 43.6 6.6 49.7 6.6 56.1 C9.6 55.9 9.6 55.9 12.8 55.8 C13.5 55.8 14.2 55.7 14.8 55.7 C15.5 55.7 15.5 55.7 16.3 55.7 C16.8 55.7 17.4 55.6 17.9 55.6 C19.6 55.5 19.6 55.5 21.6 54.0 C26.8 53.3 26.8 53.3 29.8 55.4 C31.5 57.8 32.1 59.1 32.1 62.1 C31.0 65.0 30.3 66.2 27.6 68.1 C26.2 68.3 26.2 68.3 24.6 68.3 C24.1 68.3 23.6 68.3 23.0 68.3 C21.6 68.1 21.6 68.1 19.4 66.6 C17.9 66.4 17.9 66.4 16.3 66.3 C15.8 66.3 15.4 66.2 14.8 66.2 C13.8 66.2 13.8 66.2 12.8 66.1 C9.8 66.0 9.8 66.0 6.6 65.9 C6.6 72.1 6.6 78.2 6.6 84.6 C10.1 84.5 10.1 84.5 13.6 84.5 C15.8 84.5 18.1 84.4 20.4 84.4 C22.0 84.4 23.5 84.4 25.1 84.4 C27.3 84.4 29.5 84.4 31.8 84.3 C32.5 84.3 33.2 84.3 33.9 84.3 C39.2 84.3 42.9 85.0 47.0 88.7 C49.7 91.9 50.9 94.7 51.8 98.6 C52.3 100.7 52.3 100.7 53.6 102.7 C54.6 104.2 54.6 104.2 54.2 107.5 C52.9 110.8 52.2 111.6 49.4 112.8 C45.8 113.1 43.4 112.5 40.7 110.8 C39.2 107.9 39.2 106.5 39.6 103.4 C40.0 102.5 40.4 102.5 40.8 101.6 C42.2 99.3 42.2 99.3 41.4 97.5 C40.2 95.4 39.5 95.2 37.3 94.3 C35.8 94.1 35.8 94.1 34.1 94.1 C33.5 94.1 32.8 94.1 32.1 94.1 C31.5 94.1 30.8 94.1 30.1 94.1 C29.4 94.0 28.7 94.0 28.0 94.0 C25.8 94.0 25.8 94.0 21.4 94.0 C19.2 93.8 17.0 93.8 16.9 93.8 C13.2 93.7 9.5 93.6 5.9 93.6 C5.8 94.4 5.6 95.2 5.5 96.1 C4.6 102.6 0.4 107.6 -4.6 111.6 C-11.6 116.0 -19.3 117.0 -27.3 115.4 C-34.8 113.1 -40.7 108.4 -44.6 101.6 C-46.1 98.6 -46.8 95.8 -47.3 92.4 C-48.0 88.4 -49.1 87.1 -52.0 84.5 C-56.6 79.9 -58.7 73.0 -58.8 66.4 C-58.7 60.0 -56.6 55.2 -52.7 50.3 C-51.6 48.0 -52.1 46.7 -52.6 44.0 C-53.3 34.9 -52.6 27.7 -46.4 20.6 C-44.3 18.4 -42.4 16.7 -39.7 15.3 C-36.1 13.3 -35.3 10.2 -34.0 6.5 C-32.0 1.4 -28.2 -1.6 -23.4 -3.9 C-14.9 -7.1 -7.2 -5.0 0 0 Z" fill="#F66332" transform="translate(93.9,41.1)"/>
</svg>