<svg xmlns="http://www.w3.org/2000/svg" viewBox="0 0 32 32" width="32" height="32">
  <defs>
    <linearGradient id="bg" x1="0%" y1="0%" x2="100%" y2="100%">
      <stop offset="0%" stop-color="#4f46e5"/>
      <stop offset="50%" stop-color="#7c3aed"/>
      <stop offset="100%" stop-color="#ec4899"/>
    </linearGradient>
    <linearGradient id="brain" x1="0%" y1="0%" x2="100%" y2="100%">
      <stop offset="0%" stop-color="#ffffff"/>
      <stop offset="100%" stop-color="#f8fafc"/>
    </linearGradient>
    <linearGradient id="circuit" x1="0%" y1="0%" x2="100%" y2="100%">
      <stop offset="0%" stop-color="#06b6d4"/>
      <stop offset="100%" stop-color="#10b981"/>
    </linearGradient>
  </defs>
  
  <!-- Background -->
  <rect width="32" height="32" rx="6" fill="url(#bg)"/>
  
  <!-- Brain Shape -->
  <g transform="translate(4, 6)">
    <path d="M12 2c3.5 0 6 2 7 4.5 1 2.5 0.5 5-1 7-1.5 2-4 3-6.5 3-1.5 0-3-0.5-4.5-1.5-1.5-1-2.5-2.5-3-4.5-0.5-2 0-4 1.5-5.5C7 3.5 9.5 2 12 2z" fill="url(#brain)" opacity="0.95"/>
    
    <!-- Quiz/Question Mark -->
    <g fill="url(#circuit)" stroke="none">
      <path d="M10 8c0-1 0.5-1.5 1.5-1.5s1.5 0.5 1.5 1.5-0.5 1-1 1.2v0.8h-1v-1c0-0.5 0.5-0.8 1-1 0.3-0.2 0.5-0.4 0.5-0.8 0-0.3-0.2-0.5-0.5-0.5s-0.5 0.2-0.5 0.5h-1z"/>
      <circle cx="11.5" cy="12" r="0.5"/>
    </g>
    
    <!-- AI Circuit Nodes -->
    <g fill="#fbbf24" opacity="0.8">
      <circle cx="7" cy="6" r="0.8"/>
      <circle cx="16" cy="8" r="0.8"/>
      <circle cx="6" cy="12" r="0.8"/>
      <circle cx="17" cy="14" r="0.8"/>
    </g>
    
    <!-- Circuit Lines -->
    <g stroke="url(#circuit)" stroke-width="1.2" fill="none" opacity="0.7">
      <path d="M7 6L10 8"/>
      <path d="M13 8L16 8"/>
      <path d="M6 12L9 10"/>
      <path d="M14 12L17 14"/>
    </g>
  </g>
  
  <!-- AI Sparkle -->
  <g transform="translate(22, 4)" fill="#ffd700" opacity="0.9">
    <path d="M3 0L4 2L6 1L5 3L7 4L5 5L6 7L4 6L3 8L2 6L0 7L1 5L-1 4L1 3L0 1L2 2L3 0Z" transform="scale(0.6)"/>
  </g>
</svg>