<svg width="192" height="192" viewBox="0 0 192 192" fill="none" xmlns="http://www.w3.org/2000/svg">
<rect width="192" height="192" rx="48" fill="#003322"/>
<path d="M96 39.75C69.8362 39.75 48.75 60.8363 48.75 87C48.75 101.044 54.72 113.468 64.185 122.94C69.0825 127.832 75.105 131.46 81.75 133.549V133.552C83.2088 134.018 84.705 134.374 86.25 134.629V152.25H105.75V134.629C107.295 134.374 108.791 134.018 110.25 133.552V133.549C116.895 131.46 122.917 127.832 127.815 122.94C137.28 113.468 143.25 101.044 143.25 87C143.25 60.8363 122.164 39.75 96 39.75ZM96 127.875C75.2812 127.875 58.5 111.094 58.5 90.375C58.5 69.6562 75.2812 52.875 96 52.875C116.719 52.875 133.5 69.6562 133.5 90.375C133.5 111.094 116.719 127.875 96 127.875Z" fill="white"/>
<path d="M101.25 90.375H90.75V80.625H101.25V90.375Z" fill="white"/>
<path d="M101.25 100.125V110.25H90.75V100.125H101.25Z" fill="white"/>
</svg>
