<svg width="180" height="180" viewBox="0 0 180 180" xmlns="http://www.w3.org/2000/svg">
  <path d="M0 0 C1.85 -0.004 3.7 -0.008 5.56 -0.013 C9.26 -0.021 12.96 -0.018 16.67 -0.007 C21.2 0.005 25.7 -0.006 30.3 -0.029 C34.6 -0.05 38.9 -0.051 43.2 -0.045 C44.4 -0.044 45.6 -0.049 46.9 -0.059 C66.2 -0.15 80.3 2.47 95.0 15.2 C95.9 15.8 96.8 16.4 97.7 17.8 C105.3 25.5 109.7 38.5 110.3 51.7 C110.5 56.6 110.5 61.6 110.5 66.6 C110.5 68.2 110.5 69.8 110.5 71.4 C110.6 75.7 110.5 79.9 110.5 83.3 C110.4 87.7 110.5 92.0 110.5 96.3 C110.5 100.6 110.5 104.9 110.5 109.1 C110.5 110.7 110.5 112.3 110.5 114.4 C110.7 132.7 109.8 146.8 96.9 161.5 C96.0 162.5 95.1 163.4 93.5 164.4 C86.9 172.1 73.6 176.5 60.3 177.2 C55.4 177.4 50.4 177.4 45.6 177.3 C44.0 177.3 42.4 177.3 40.7 177.3 C36.4 177.4 32.0 177.4 28.8 177.3 C24.4 177.3 20.1 177.3 15.7 177.4 C11.5 177.4 7.2 177.4 3.0 177.4 C1.2 177.4 -0.6 177.4 -2.4 177.4 C-20.6 177.5 -34.8 176.5 -49.4 163.6 C-50.4 162.7 -51.3 161.7 -52.3 160.7 C-60.0 154.1 -64.4 141.4 -65.0 128.1 C-65.2 123.2 -65.2 118.2 -65.1 113.3 C-65.2 111.7 -65.2 110.1 -65.2 108.1 C-65.2 103.7 -65.2 99.4 -65.2 95.1 C-65.2 90.9 -65.2 86.6 -65.2 82.3 C-65.2 78.0 -65.2 73.7 -65.2 69.4 C-65.2 67.7 -65.2 66.0 -65.2 64.1 C-65.3 45.8 -64.0 31.7 -51.4 17.0 C-50.6 16.0 -49.7 15.0 -48.8 14.1 C-36.7 1.7 -18.8 -0.05 0 0 Z" fill="#F05F41" transform="translate(66.0,-0.4)"/>
  <path d="M0 0 C3.5 3.5 6.0 7.7 6.2 12.7 C6.1 13.6 6.1 13.6 6.1 14.6 C6.1 15.6 6.1 15.6 6.1 16.7 C6.1 17.7 6.1 17.7 6.1 18.8 C6.1 19.5 6.1 20.2 6.1 21.0 C6.0 22.7 6.0 24.4 6.1 26.3 C10.2 26.3 14.3 26.3 18.5 26.3 C18.5 25.1 18.5 24.0 18.4 23.1 C18.4 21.7 18.4 20.4 18.4 19.0 C18.4 18.2 18.3 17.5 18.3 16.8 C18.3 12.4 18.6 9.1 21.4 5.6 C22.8 4.1 22.8 4.1 24.2 3.2 C26.3 1.8 28.0 0.3 29.7 -1.5 C31.7 -2.5 33.0 -2.4 35.3 -2.2 C37.7 -0.6 38.9 0.5 40.1 3.2 C40.0 6.0 38.2 7.4 38.0 9.6 C35.4 11.3 33.9 11.7 31.2 11.5 C30.4 11.3 29.8 11.2 29.0 11.0 C27.9 12.9 27.4 14.4 27.3 16.7 C27.3 17.3 27.2 17.9 27.2 18.4 C27.2 19.0 27.2 19.6 27.2 20.2 C27.2 20.8 27.1 21.4 27.1 22.0 C27.0 23.4 27.0 24.8 26.9 26.3 C28.7 26.1 30.4 26.0 32.2 26.0 C32.7 26.0 33.2 26.0 33.7 26.0 C37.0 25.7 39.3 25.1 42.2 23.4 C45.0 23.4 46.1 24.3 48.3 25.6 C49.9 27.6 50.4 28.6 50.5 31.1 C49.8 34.2 48.3 35.7 45.7 37.3 C43.3 37.7 42.1 37.8 40.1 36.2 C37.0 34.8 34.1 34.9 30.7 34.9 C29.6 34.9 29.6 34.9 28.6 34.9 C26.4 34.8 24.1 34.8 21.9 34.8 C20.4 34.8 18.8 34.8 17.2 34.8 C13.5 34.6 9.8 34.6 6.1 34.6 C6.1 40.4 6.1 46.0 6.1 51.9 C8.9 51.7 8.9 51.7 11.9 51.6 C12.5 51.6 13.1 51.5 13.7 51.5 C14.4 51.5 14.4 51.5 15.1 51.5 C15.5 51.5 16.1 51.4 16.6 51.4 C18.1 51.3 18.1 51.3 20.0 50.0 C24.8 49.3 24.8 49.3 27.6 51.3 C29.2 53.5 29.8 54.7 29.8 57.5 C28.7 60.2 28.1 61.3 25.6 63.1 C24.3 63.3 24.3 63.3 22.8 63.3 C22.3 63.3 21.9 63.3 21.3 63.3 C20.0 63.1 20.0 63.1 18.0 61.7 C16.6 61.5 16.6 61.5 15.1 61.4 C14.6 61.4 14.2 61.3 13.7 61.3 C12.8 61.3 12.8 61.3 11.9 61.2 C9.1 61.1 9.1 61.1 6.1 61.0 C6.1 66.8 6.1 72.4 6.1 78.3 C9.3 78.2 9.3 78.2 12.6 78.2 C14.6 78.2 16.7 78.1 18.9 78.1 C20.4 78.1 21.8 78.1 23.2 78.1 C25.3 78.1 27.3 78.1 29.4 78.0 C30.1 78.0 30.7 78.0 31.4 78.0 C36.3 78.0 39.7 78.6 43.5 82.1 C46.0 85.0 47.1 87.6 47.9 91.2 C48.4 93.1 48.4 93.1 49.6 95.0 C50.5 96.4 50.5 96.4 50.1 99.5 C49.0 102.5 48.3 103.2 45.7 104.3 C42.4 104.6 40.2 104.1 37.7 102.6 C36.3 99.9 36.3 98.6 36.7 95.8 C37.1 94.9 37.4 94.9 37.8 94.1 C39.1 92.0 39.1 92.0 38.3 90.3 C37.2 88.4 36.6 88.2 34.5 87.4 C33.1 87.2 33.1 87.2 31.6 87.2 C31.0 87.2 30.4 87.2 29.7 87.2 C29.1 87.2 28.5 87.2 27.9 87.2 C27.2 87.1 26.6 87.1 25.9 87.1 C23.9 87.1 23.9 87.1 19.8 87.1 C17.8 86.9 15.7 86.9 15.6 86.9 C12.2 86.8 8.8 86.7 5.5 86.7 C5.4 87.4 5.2 88.1 5.1 89.0 C4.3 94.9 0.4 99.6 -4.3 103.3 C-10.7 107.4 -17.9 108.3 -25.3 106.8 C-32.2 104.7 -37.7 100.3 -41.3 94.1 C-42.7 91.3 -43.3 88.7 -43.8 85.5 C-44.4 81.8 -45.4 80.6 -48.1 78.2 C-52.4 74.0 -54.3 67.6 -54.4 61.5 C-54.3 55.5 -52.4 51.1 -48.8 46.6 C-47.8 44.4 -48.3 43.2 -48.7 40.7 C-49.3 32.3 -48.7 25.6 -43.0 19.1 C-41.0 17.0 -39.3 15.5 -36.8 14.2 C-33.4 12.3 -32.7 9.4 -31.5 6.0 C-29.6 1.3 -26.1 -1.5 -21.7 -3.6 C-13.8 -6.6 -6.7 -4.6 0 0 Z" fill="#F66332" transform="translate(87.0,38.1)"/>
</svg>