<?xml version="1.0" encoding="UTF-8"?>
<svg version="1.1" xmlns="http://www.w3.org/2000/svg" width="16" height="16" viewBox="0 0 256 256">
<path d="M0 0 C2.62204711 -0.00524699 5.24409233 -0.01152737 7.86613464 -0.01878357 C13.340275 -0.0305617 18.81420275 -0.02502853 24.28833008 -0.01000977 C30.56308287 0.00688613 36.83713857 -0.0089138 43.11181527 -0.04123265 C49.21261906 -0.07143315 55.31311048 -0.07305481 61.41397667 -0.06373405 C63.98003736 -0.06292178 66.54611333 -0.06964431 69.11213112 -0.08450508 C95.40616706 -0.21345799 115.77781156 3.56128141 135.85546875 21.56640625 C136.4896875 22.118125 137.12390625 22.66984375 137.77734375 23.23828125 C151.87731143 36.30338891 160.31901127 55.43185005 161.23880005 74.50210571 C161.4492491 81.57111085 161.43921049 88.63946501 161.421875 95.7109375 C161.42712199 98.33298461 161.43340237 100.95502983 161.44065857 103.57707214 C161.4524367 109.0512125 161.44690353 114.52514025 161.43188477 119.99926758 C161.41498887 126.27402037 161.4307888 132.54807607 161.46310765 138.82275277 C161.49330815 144.92355656 161.49492981 151.02404798 161.48560905 157.12491417 C161.48479678 159.69097486 161.49151931 162.25705083 161.50638008 164.82306862 C161.63533299 191.11710456 157.86059359 211.48874906 139.85546875 231.56640625 C139.30375 232.200625 138.75203125 232.83484375 138.18359375 233.48828125 C125.11848609 247.58824893 105.99002495 256.02994877 86.91976929 256.94973755 C79.85076415 257.1601866 72.78240999 257.15014799 65.7109375 257.1328125 C63.08889039 257.13805949 60.46684517 257.14433987 57.84480286 257.15159607 C52.3706625 257.1633742 46.89673475 257.15784103 41.42260742 257.14282227 C35.14785463 257.12592637 28.87379893 257.1417263 22.59912223 257.17404515 C16.49831844 257.20424565 10.39782702 257.20586731 4.29696083 257.19654655 C1.73090014 257.19573428 -0.83517583 257.20245681 -3.40119362 257.21731758 C-29.69522956 257.34627049 -50.06687406 253.57153109 -70.14453125 235.56640625 C-70.77875 235.0146875 -71.41296875 234.46296875 -72.06640625 233.89453125 C-86.16637393 220.82942359 -94.60807377 201.70096245 -95.52786255 182.63070679 C-95.7383116 175.56170165 -95.72827299 168.49334749 -95.7109375 161.421875 C-95.71618449 158.79982789 -95.72246487 156.17778267 -95.72972107 153.55574036 C-95.7414992 148.0816 -95.73596603 142.60767225 -95.72094727 137.13354492 C-95.70405137 130.85879213 -95.7198513 124.58473643 -95.75217015 118.31005973 C-95.78237065 112.20925594 -95.78399231 106.10876452 -95.77467155 100.00789833 C-95.77385928 97.44183764 -95.78058181 94.87576167 -95.79544258 92.30974388 C-95.92439549 66.01570794 -92.14965609 45.64406344 -74.14453125 25.56640625 C-73.5928125 24.9321875 -73.04109375 24.29796875 -72.47265625 23.64453125 C-52.88612577 2.50659241 -27.10747062 -0.06645308 0 0 Z M-41.14453125 16.56640625 C-42.05589844 16.9428125 -42.96726563 17.31921875 -43.90625 17.70703125 C-62.01638057 25.94536515 -73.45320105 40.5558747 -81.14453125 58.56640625 C-84.11862272 67.64013903 -84.29445835 77.46474054 -84.28979492 86.92871094 C-84.29315353 87.92351471 -84.29651215 88.91831848 -84.29997253 89.94326782 C-84.30941473 93.20828526 -84.31142228 96.47325104 -84.3125 99.73828125 C-84.31571736 102.02598084 -84.31908179 104.31368023 -84.32258606 106.60137939 C-84.32856059 111.38920569 -84.3304277 116.17701399 -84.32983398 120.96484375 C-84.32973248 127.07169697 -84.34337982 133.17843361 -84.36060619 139.28525925 C-84.37177592 144.00901815 -84.37375166 148.73274932 -84.37322426 153.45652008 C-84.37439707 155.70655977 -84.37877917 157.95660034 -84.38655663 160.20662689 C-84.60621881 181.81575405 -84.60621881 181.81575405 -79.14453125 202.56640625 C-78.768125 203.47777344 -78.39171875 204.38914063 -78.00390625 205.328125 C-69.76557235 223.43825557 -55.1550628 234.87507605 -37.14453125 242.56640625 C-28.07079847 245.54049772 -18.24619696 245.71633335 -8.78222656 245.71166992 C-7.2900209 245.71670784 -7.2900209 245.71670784 -5.76766968 245.72184753 C-2.50265224 245.73128973 0.76231354 245.73329728 4.02734375 245.734375 C6.31504334 245.73759236 8.60274273 245.74095679 10.89044189 245.74446106 C15.67826819 245.75043559 20.46607649 245.7523027 25.25390625 245.75170898 C31.36075947 245.75160748 37.46749611 245.76525482 43.57432175 245.78248119 C48.29808065 245.79365092 53.02181182 245.79562666 57.74558258 245.79509926 C59.99562227 245.79627207 62.24566284 245.80065417 64.49568939 245.80843163 C86.10481655 246.02809381 86.10481655 246.02809381 106.85546875 240.56640625 C107.76683594 240.19 108.67820313 239.81359375 109.6171875 239.42578125 C127.72731807 231.18744735 139.16413855 216.5769378 146.85546875 198.56640625 C149.82956022 189.49267347 150.00539585 179.66807196 150.00073242 170.20410156 C150.00409103 169.20929779 150.00744965 168.21449402 150.01091003 167.18954468 C150.02035223 163.92452724 150.02235978 160.65956146 150.0234375 157.39453125 C150.02665486 155.10683166 150.03001929 152.81913227 150.03352356 150.53143311 C150.03949809 145.74360681 150.0413652 140.95579851 150.04077148 136.16796875 C150.04066998 130.06111553 150.05431732 123.95437889 150.07154369 117.84755325 C150.08271342 113.12379435 150.08468916 108.40006318 150.08416176 103.67629242 C150.08533457 101.42625273 150.08971667 99.17621216 150.09749413 96.92618561 C150.31715631 75.31705845 150.31715631 75.31705845 144.85546875 54.56640625 C144.4790625 53.65503906 144.10265625 52.74367187 143.71484375 51.8046875 C135.47650985 33.69455693 120.8660003 22.25773645 102.85546875 14.56640625 C93.78173597 11.59231478 83.95713446 11.41647915 74.49316406 11.42114258 C73.0009584 11.41610466 73.0009584 11.41610466 71.47860718 11.41096497 C68.21358974 11.40152277 64.94862396 11.39951522 61.68359375 11.3984375 C59.39589416 11.39522014 57.10819477 11.39185571 54.82049561 11.38835144 C50.03266931 11.38237691 45.24486101 11.3805098 40.45703125 11.38110352 C34.35017803 11.38120502 28.24344139 11.36755768 22.13661575 11.35033131 C17.41285685 11.33916158 12.68912568 11.33718584 7.96535492 11.33771324 C5.71531523 11.33654043 3.46527466 11.33215833 1.21524811 11.32438087 C-20.39387905 11.10471869 -20.39387905 11.10471869 -41.14453125 16.56640625 Z " fill="#F05F41" transform="translate(95.14453125,-0.56640625)"/>
<path d="M0 0 C4.97559611 4.97559611 8.59819792 11.14301903 8.92602539 18.28613281 C8.91817017 19.63723145 8.91817017 19.63723145 8.91015625 21.015625 C8.90532227 22.48515625 8.90532227 22.48515625 8.90039062 23.984375 C8.88782227 25.50804688 8.88782227 25.50804688 8.875 27.0625 C8.87048828 28.09375 8.86597656 29.125 8.86132812 30.1875 C8.84956103 32.72919154 8.8316261 35.27085318 8.8125 37.8125 C14.7525 37.8125 20.6925 37.8125 26.8125 37.8125 C26.76609375 36.3171875 26.7196875 34.821875 26.671875 33.28125 C26.63433607 31.29168676 26.5979382 29.30210177 26.5625 27.3125 C26.52898437 26.33023438 26.49546875 25.34796875 26.4609375 24.3359375 C26.3755421 17.93128275 27.02769057 13.10274269 30.8125 7.8125 C32.8125 5.859375 32.8125 5.859375 34.8125 4.5625 C37.80332494 2.52229042 40.29243934 0.42948607 42.8125 -2.1875 C45.71545805 -3.63897903 47.58511779 -3.55989025 50.8125 -3.1875 C54.43164281 -0.86578574 56.4001676 0.67252219 57.875 4.75 C57.79577608 8.63197224 57.01557512 10.61448773 54.8125 13.8125 C51.16219243 16.38430761 49.41947283 16.86144942 44.9375 16.5 C43.90625 16.273125 42.875 16.04625 41.8125 15.8125 C40.19614512 18.68223884 39.5391582 20.85714203 39.3984375 24.140625 C39.35976562 24.93984375 39.32109375 25.7390625 39.28125 26.5625 C39.2503125 27.3875 39.219375 28.2125 39.1875 29.0625 C39.14882812 29.90296875 39.11015625 30.7434375 39.0703125 31.609375 C38.97634164 33.67673382 38.89334436 35.74458627 38.8125 37.8125 C41.35570516 37.72490742 43.89566933 37.61796587 46.4375 37.5 C47.15035156 37.47744141 47.86320312 37.45488281 48.59765625 37.43164062 C53.38403301 37.1901262 56.54250496 36.14442994 60.8125 33.8125 C64.87843099 33.8125 66.43532124 34.51075699 69.625 37.0625 C71.88486096 39.90346806 72.72270894 41.22085752 72.8125 44.8125 C71.72773308 49.26004436 69.68797777 51.43436592 65.8125 53.8125 C62.36912362 54.31465906 60.62057299 54.40831643 57.78442383 52.31713867 C53.35678718 50.07549531 49.16026802 50.33270878 44.26171875 50.30078125 C42.74080376 50.27385445 42.74080376 50.27385445 41.18916321 50.24638367 C37.95948408 50.19232154 34.72995243 50.15839756 31.5 50.125 C29.30662013 50.09182337 27.1132597 50.05733339 24.91992188 50.02148438 C19.55076049 49.93413139 14.18226776 49.87402638 8.8125 49.8125 C8.8125 58.0625 8.8125 66.3125 8.8125 74.8125 C12.9271875 74.626875 12.9271875 74.626875 17.125 74.4375 C17.98520752 74.40350098 18.84541504 74.36950195 19.73168945 74.33447266 C20.75588989 74.28105713 20.75588989 74.28105713 21.80078125 74.2265625 C22.49727783 74.1951416 23.19377441 74.1637207 23.91137695 74.13134766 C26.13782739 73.89131747 26.13782739 73.89131747 28.8125 71.8125 C35.73248359 71.03121153 35.73248359 71.03121153 39.75 73.9375 C42.06508338 77.16458593 42.8125 78.85010154 42.8125 82.8125 C41.28376129 86.78722063 40.38469503 88.43103665 36.8125 90.8125 C34.875 91.078125 34.875 91.078125 32.8125 91.0625 C32.131875 91.06765625 31.45125 91.0728125 30.75 91.078125 C28.8125 90.8125 28.8125 90.8125 25.8125 88.8125 C23.88505631 88.4498883 23.88505631 88.4498883 21.80078125 88.3984375 C21.11798096 88.36282715 20.43518066 88.3272168 19.73168945 88.29052734 C18.44137817 88.23952881 18.44137817 88.23952881 17.125 88.1875 C13.0103125 88.001875 13.0103125 88.001875 8.8125 87.8125 C8.8125 96.0625 8.8125 104.3125 8.8125 112.8125 C13.43765625 112.74289063 13.43765625 112.74289063 18.15625 112.671875 C21.16144161 112.64062922 24.16661473 112.61637002 27.171875 112.59277344 C29.25138525 112.57272841 31.33083963 112.54548487 33.41015625 112.51074219 C36.40899487 112.46191052 39.40708463 112.43945972 42.40625 112.421875 C43.32740601 112.40122986 44.24856201 112.38058472 45.19763184 112.35931396 C52.20750817 112.35690816 57.28274866 114.02475926 62.80078125 118.3828125 C66.28911619 122.47826178 67.84275303 126.25393075 69.1484375 131.4609375 C69.77727648 134.04660795 69.77727648 134.04660795 71.625 137 C72.8125 139.8125 72.8125 139.8125 72.3125 143.4375 C70.58184702 147.33146921 69.61510514 148.87074418 65.8125 150.8125 C61.15638367 151.21991018 57.87623738 150.69462368 54.25 147.6875 C52.43787531 144.06325063 52.31121678 141.82276576 52.8125 137.8125 C53.34875 136.94625 53.885 136.08 54.4375 135.1875 C56.13548691 132.86414594 56.13548691 132.86414594 55.25 130.125 C53.59998451 127.47062725 52.66332306 126.9575315 49.8125 125.8125 C47.71686064 125.49081114 47.71686064 125.49081114 45.50292969 125.49365234 C44.66236023 125.47378265 43.82179077 125.45391296 42.95574951 125.43344116 C42.05769592 125.42188995 41.15964233 125.41033875 40.234375 125.3984375 C39.3078009 125.37907135 38.38122681 125.3597052 37.42657471 125.3397522 C34.47197629 125.28005233 31.51733871 125.23360932 28.5625 125.1875 C26.55727483 125.1493114 24.55206591 125.11025915 22.546875 125.0703125 C17.63554889 124.9743586 12.724146 124.89029197 7.8125 124.8125 C7.66627197 125.91859619 7.52004395 127.02469238 7.36938477 128.16430664 C6.0621366 136.72818622 0.51066245 143.5570187 -6.1875 148.8125 C-15.54768701 154.69729776 -25.68085376 156.0325412 -36.4375 153.75 C-46.38625245 150.84008822 -54.17667475 144.63090293 -59.4375 135.6875 C-61.45675117 131.53021818 -62.39909641 127.76313049 -63 123.1875 C-63.80561242 118.03300636 -65.4487501 116.09747376 -69.3046875 112.7578125 C-75.5186632 106.33756375 -78.23690364 97.32187435 -78.4375 88.5625 C-78.29541767 80.09439307 -75.55441484 73.57503184 -70.296875 67.015625 C-68.74917626 63.94202609 -69.46542562 62.13730575 -70.1875 58.8125 C-71.03073596 46.49572552 -70.11185555 37.02366135 -61.9375 27.4375 C-59.11143983 24.46269982 -56.5744191 22.31106438 -52.9375 20.4375 C-48.16088807 17.79854014 -47.14103323 13.6070633 -45.3203125 8.6875 C-42.65792825 1.93055239 -37.63150008 -2.08785439 -31.1875 -5.1875 C-19.79932926 -9.40843668 -9.62968379 -6.60860652 0 0 Z M-30.66015625 9.17578125 C-33.26665236 12.11663838 -35.2774256 14.99018754 -36.1875 18.8125 C-35.95982048 21.54465422 -35.63783371 24.12007929 -35.1875 26.8125 C-34.94380796 28.43538526 -34.71449222 30.06049802 -34.5 31.6875 C-34.39300781 32.42742187 -34.28601563 33.16734375 -34.17578125 33.9296875 C-34.1875 35.8125 -34.1875 35.8125 -36.1875 37.8125 C-39.625 37.8125 -39.625 37.8125 -43.1875 36.8125 C-45.125 33.75 -45.125 33.75 -46.1875 30.8125 C-52.44445621 34.30475463 -55.91808234 39.00424702 -58.1875 45.8125 C-58.2560495 47.70720816 -58.27230372 49.6041834 -58.25 51.5 C-58.24097656 52.49386719 -58.23195313 53.48773438 -58.22265625 54.51171875 C-58.21105469 55.27097656 -58.19945312 56.03023437 -58.1875 56.8125 C-56.2075 57.4725 -54.2275 58.1325 -52.1875 58.8125 C-51.4375 61.5625 -51.4375 61.5625 -51.1875 64.8125 C-53.1878061 67.45290406 -55.53595317 69.07383988 -58.1875 71.0625 C-62.88078841 75.02916254 -64.9117882 79.10185033 -65.53515625 85.23046875 C-65.72435923 93.0371484 -64.69504839 97.70012064 -60.625 104.375 C-54.21311424 110.78688576 -45.93420589 112.69837587 -37.1875 113.8125 C-36.9921875 119.8671875 -36.9921875 119.8671875 -37.1875 121.8125 C-39.1875 123.8125 -39.1875 123.8125 -41.7890625 124.0078125 C-42.78679687 123.98460937 -43.78453125 123.96140625 -44.8125 123.9375 C-45.81539062 123.91945313 -46.81828125 123.90140625 -47.8515625 123.8828125 C-48.62242188 123.85960937 -49.39328125 123.83640625 -50.1875 123.8125 C-48.96815514 127.84571763 -47.62795073 131.35519479 -45.1875 134.8125 C-44.5275 134.8125 -43.8675 134.8125 -43.1875 134.8125 C-43.1875 135.4725 -43.1875 136.1325 -43.1875 136.8125 C-35.98511333 141.33066386 -30.88627384 143.48375341 -22.25 142.25 C-16.01801397 140.41850904 -10.8207721 136.82268105 -6.75 131.8125 C-3.34310922 125.2712697 -2.91200037 119.8374144 -2.9921875 112.6015625 C-2.99643234 111.14935806 -2.99643234 111.14935806 -3.00076294 109.66781616 C-3.01191304 106.59091572 -3.0370082 103.51431172 -3.0625 100.4375 C-3.07253648 98.3450563 -3.08166116 96.25260802 -3.08984375 94.16015625 C-3.11183547 89.04415749 -3.14632975 83.92837892 -3.1875 78.8125 C-4.34378906 79.44478516 -4.34378906 79.44478516 -5.5234375 80.08984375 C-6.52632812 80.63769531 -7.52921875 81.18554688 -8.5625 81.75 C-9.56023437 82.29527344 -10.55796875 82.84054688 -11.5859375 83.40234375 C-15.80693168 85.69030005 -18.31584084 85.98965124 -23.1875 85.8125 C-24.1875 84.8125 -24.1875 84.8125 -24.9375 81.6875 C-24.1875 77.8125 -24.1875 77.8125 -21.98046875 76.07421875 C-20.02453723 74.91029233 -18.06052065 73.75987615 -16.08984375 72.62109375 C-9.86006861 68.73901314 -5.98841393 63.84973769 -3.78076172 56.80517578 C-2.56137575 50.65405101 -2.708162 44.38751153 -2.74145508 38.13720703 C-2.75000635 35.68567988 -2.72106858 33.23645667 -2.68945312 30.78515625 C-2.68784161 29.20833402 -2.68841769 27.63150772 -2.69140625 26.0546875 C-2.68017227 25.33159393 -2.66893829 24.60850037 -2.65736389 23.86349487 C-2.75093932 16.96904983 -5.22067962 12.91654041 -9.875 7.9375 C-16.65449935 3.58838721 -24.4343507 3.41236974 -30.66015625 9.17578125 Z " fill="#F66332" transform="translate(125.1875,54.1875)"/>
</svg>