<svg xmlns="http://www.w3.org/2000/svg" viewBox="0 0 512 512" width="512" height="512">
  <defs>
    <linearGradient id="bg512" x1="0%" y1="0%" x2="100%" y2="100%">
      <stop offset="0%" stop-color="#4f46e5"/>
      <stop offset="50%" stop-color="#7c3aed"/>
      <stop offset="100%" stop-color="#ec4899"/>
    </linearGradient>
    <linearGradient id="brain512" x1="0%" y1="0%" x2="100%" y2="100%">
      <stop offset="0%" stop-color="#ffffff"/>
      <stop offset="100%" stop-color="#f8fafc"/>
    </linearGradient>
    <linearGradient id="circuit512" x1="0%" y1="0%" x2="100%" y2="100%">
      <stop offset="0%" stop-color="#06b6d4"/>
      <stop offset="100%" stop-color="#10b981"/>
    </linearGradient>
  </defs>
  
  <!-- Background -->
  <rect width="512" height="512" rx="96" fill="url(#bg512)"/>
  
  <!-- Brain Shape -->
  <g transform="translate(64, 96)">
    <path d="M192 32c56 0 96 32 112 72 16 40 8 80-16 112-24 32-64 48-104 48-24 0-48-8-72-24-24-16-40-40-48-72-8-32 0-64 24-88C112 56 152 32 192 32z" fill="url(#brain512)" opacity="0.95"/>
    
    <!-- Quiz/Question Mark -->
    <g fill="url(#circuit512)" stroke="none">
      <path d="M160 144c0-16 8-24 24-24s24 8 24 24-8 16-16 19.2v12.8h-16v-16c0-8 8-12.8 16-16 4.8-3.2 8-6.4 8-12.8 0-4.8-3.2-8-8-8s-8 3.2-8 8h-24z"/>
      <circle cx="184" cy="224" r="8"/>
    </g>
    
    <!-- AI Circuit Nodes -->
    <g fill="#fbbf24" opacity="0.8">
      <circle cx="112" cy="96" r="12.8"/>
      <circle cx="256" cy="128" r="12.8"/>
      <circle cx="96" cy="192" r="12.8"/>
      <circle cx="272" cy="224" r="12.8"/>
    </g>
    
    <!-- Circuit Lines -->
    <g stroke="url(#circuit512)" stroke-width="19.2" fill="none" opacity="0.7">
      <path d="M112 96L160 128"/>
      <path d="M208 128L256 128"/>
      <path d="M96 192L144 160"/>
      <path d="M224 192L272 224"/>
    </g>
  </g>
  
  <!-- AI Sparkle -->
  <g transform="translate(352, 64)" fill="#ffd700" opacity="0.9">
    <path d="M48 0L64 32L96 16L80 48L112 64L80 80L96 112L64 96L48 128L32 96L0 112L16 80L-16 64L16 48L0 16L32 32L48 0Z"/>
  </g>
</svg>