<svg width="192" height="192" viewBox="0 0 192 192" fill="none" xmlns="http://www.w3.org/2000/svg">
<rect width="192" height="192" rx="48" fill="#10756E"/>
<path fill-rule="evenodd" clip-rule="evenodd" d="M127.333 138.667C124.662 138.667 122.113 139.469 119.983 140.949L108 150.667V132C108 129.791 106.209 128 104 128H88C85.7909 128 84 129.791 84 132V150.667L72.0169
C69.8872 139.469 67.3384 138.667 64.6667 138.667H53.3333C46.5228 138.667 41 133.144 41 126.333V65.6667C41 58.8562 46.5228 53.3333 53.3333 53.3333H138.667C145.477 53.3333 151 58.8562 151 65.6667V126.333C151 133.144 145.477 138.667 138.667 138.667H127.333Z" fill="white"/>
<path d="M110 96C110 106.493 101.493 115 91 115C80.5066 115 72 106.493 72 96C72 85.5066 80.5066 77 91 77C101.493 77 110 85.5066 110 96Z" fill="#10756E"/>
<path d="M96 90.3333H86V101.667H96V90.3333Z" fill="#10756E"/>
</svg>