<svg width="32" height="32" viewBox="0 0 32 32" fill="none" xmlns="http://www.w3.org/2000/svg">
  <rect width="32" height="32" rx="6" fill="url(#gradient)"/>
  <path d="M16 6C19.866 6 23 9.134 23 13C23 14.5 22.5 15.866 21.65 16.95L20.5 15.8C21.1 15.05 21.5 14.075 21.5 13C21.5 9.962 19.038 7.5 16 7.5C12.962 7.5 10.5 9.962 10.5 13C10.5 14.075 10.9 15.05 11.5 15.8L10.35 16.95C9.5 15.866 9 14.5 9 13C9 9.134 12.134 6 16 6Z" fill="white"/>
  <circle cx="13" cy="12" r="1.5" fill="white"/>
  <circle cx="19" cy="12" r="1.5" fill="white"/>
  <path d="M12 16H20C20.552 16 21 16.448 21 17V23C21 24.105 20.105 25 19 25H13C11.895 25 11 24.105 11 23V17C11 16.448 11.448 16 12 16Z" fill="white"/>
  <rect x="13" y="18" width="6" height="1" rx="0.5" fill="url(#gradient)"/>
  <rect x="13" y="20" width="4" height="1" rx="0.5" fill="url(#gradient)"/>
  <rect x="13" y="22" width="5" height="1" rx="0.5" fill="url(#gradient)"/>
  <defs>
    <linearGradient id="gradient" x1="0" y1="0" x2="32" y2="32" gradientUnits="userSpaceOnUse">
      <stop stop-color="#3B82F6"/>
      <stop offset="1" stop-color="#1D4ED8"/>
    </linearGradient>
  </defs>
</svg>